<svg xmlns="http://www.w3.org/2000/svg" xmlns:xlink="http://www.w3.org/1999/xlink" width="500" height="412.22" viewBox="0 0 500 412.22">
  <defs>
    <style>
      .cls-1, .cls-15, .cls-19, .cls-20, .cls-8 {
        fill: #fff;
      }

      .cls-1, .cls-13, .cls-14, .cls-15, .cls-16, .cls-17, .cls-18 {
        stroke: #263238;
      }

      .cls-1, .cls-13, .cls-6 {
        stroke-miterlimit: 10;
      }

      .cls-2 {
        fill: #92e3a9;
      }

      .cls-3 {
        fill: #eff4f9;
      }

      .cls-10, .cls-4, .cls-6 {
        fill: #263238;
      }

      .cls-4, .cls-5, .cls-7 {
        opacity: 0.2;
      }

      .cls-6 {
        stroke: #fff;
      }

      .cls-9 {
        fill: #c6d8fb;
      }

      .cls-11, .cls-13, .cls-14 {
        fill: none;
      }

      .cls-12, .cls-19 {
        opacity: 0.5;
      }

      .cls-14, .cls-15, .cls-16, .cls-17, .cls-18 {
        stroke-linecap: round;
        stroke-linejoin: round;
      }

      .cls-16 {
        fill: #757575;
      }

      .cls-17 {
        fill: #999;
      }

      .cls-18 {
        fill: #bfbfbf;
      }

      .cls-20 {
        opacity: 0.1;
      }

      .cls-21 {
        clip-path: url(#clip-path);
      }
    </style>
    <clipPath id="clip-path">
      <path class="cls-1" d="M450,273.23a72,72,0,0,1-1,11.87c-2.9,17.3-12,29.92-22.76,29.92a13.68,13.68,0,0,1-2.86-.3c-11.75-2.49-20.86-20.11-20.86-41.49,0-23.08,10.62-31.25,23.72-31.25S450,250.15,450,273.23Z"/>
    </clipPath>
  </defs>
  <g id="Mouse">
    <g>
      <g>
        <path class="cls-2" d="M481.72,201.94a119.56,119.56,0,0,1-3.33,28.48c-.75,3.06-1.65,6.11-2.68,9.11-.3.86-.6,1.72-.92,2.57s-.53,1.4-.8,2.09l-.23.57c-.29.72-.58,1.44-.89,2.15l-.15.35c-.3.7-.61,1.4-.92,2.09l-.42.91c-.28.62-.57,1.23-.87,1.84s-.63,1.29-.95,1.93c-.12.23-.23.46-.35.68l-.85,1.65-.69,1.27q-1.59,2.94-3.33,5.8c-.47.78-.95,1.56-1.44,2.33-.11.19-.23.38-.35.57q-.84,1.32-1.71,2.64c-.47.71-.94,1.42-1.43,2.13L458.14,273l-.28.39c-.44.64-.9,1.28-1.35,1.92-.56.79-1.13,1.56-1.7,2.34-.12.16-.23.32-.35.47-.65.89-1.32,1.77-2,2.64-.4.52-.8,1.05-1.21,1.56-.72,1-1.46,1.89-2.21,2.83s-1.43,1.79-2.16,2.68l-.24.29c-.72.89-1.44,1.77-2.18,2.65-.21.27-.44.54-.66.8-.67.81-1.35,1.62-2,2.42q-2.94,3.48-5.93,6.9-6.08,7-12.41,13.89c-3.51,3.8-7.07,7.58-10.7,11.29C395.33,343.91,376.47,360.6,356,373.9c-2.55,1.65-5.12,3.26-7.72,4.79l-2.85,1.67-.49.28c-1,.56-2,1.11-2.95,1.65s-2,1.11-3,1.64l-1.38.72q-3,1.56-6,3c-1.09.52-2.18,1-3.28,1.51s-2,.91-3.05,1.35l-1.25.53c-.93.4-1.87.78-2.81,1.16q-2.72,1.1-5.48,2.09l-2.12.76-1.2.41-2,.65-1.72.55-.06,0-3.39,1c-1.79.52-3.58,1-5.38,1.46-1.19.3-2.38.58-3.58.85s-2.26.5-3.4.74l-.27.05c-1.18.24-2.37.47-3.56.68l-1.82.31-1.84.29c-.55.09-1.11.17-1.66.24l-2,.28a154.51,154.51,0,0,1-21.37,1.21l-1.28,0a176.84,176.84,0,0,1-19.35-1.45l-1.41-.19-2.43-.34-1.89-.3c-2.67-.42-5.32-.9-8-1.44-.59-.11-1.17-.23-1.75-.36-1.78-.37-3.57-.77-5.34-1.19-1.19-.28-2.37-.57-3.55-.87l-1.77-.46-1.77-.47c-2.35-.63-4.69-1.31-7-2q-4.06-1.23-8.08-2.61l-2.92-1c-3-1.07-6-2.2-9-3.37l-1.63-.66-1.31-.57-.88-.4c-1.94-.88-4-1.91-6.32-3.07l-1.16-.6c-1.39-.73-2.84-1.5-4.33-2.32-3.13-1.72-6.48-3.62-10-5.69-40-23.54-101.26-67.72-115.64-84.47-.73-.85-1.44-1.71-2.15-2.58-.55-.68-1.1-1.37-1.63-2.07s-1-1.26-1.44-1.91-.83-1.13-1.23-1.71-.76-1.07-1.13-1.61l-.08-.12c-.45-.67-.9-1.34-1.34-2s-.84-1.3-1.24-2c-.2-.31-.39-.63-.58-.95q-.67-1.11-1.32-2.22v0c-.46-.82-.92-1.64-1.37-2.47-.78-1.45-1.53-2.91-2.23-4.39l-.54-1.15a91.47,91.47,0,0,1-3.74-9.29c-.39-1.1-.74-2.21-1.08-3.32-.43-1.43-.82-2.87-1.18-4.31-.07-.29-.14-.57-.2-.86-.18-.75-.35-1.51-.5-2.27-.23-1.06-.42-2.12-.6-3.19,0-.26-.09-.52-.12-.78-.09-.55-.17-1.1-.24-1.66s-.17-1.33-.24-2c0-.23-.05-.45-.07-.67-.06-.57-.1-1.14-.15-1.7a.61.61,0,0,0,0-.14c-.05-.68-.09-1.35-.11-2a1.28,1.28,0,0,1,0-.19q0-1.06-.06-2.13v-2c0-1,.05-2.09.11-3.13,0-.68.09-1.36.15-2,.12-1.34.28-2.68.48-4,.1-.68.21-1.36.34-2q.36-2,.87-4.05a69.72,69.72,0,0,1,3.45-10.25,72.21,72.21,0,0,1,3.59-7.34c.1-.2.22-.41.34-.61,5.39-9.49,12.72-17.91,21-25.71.88-.84,1.77-1.66,2.68-2.47s1.91-1.72,2.88-2.58l.18-.16q2.32-2,4.71-4c2.45-2,4.94-4.06,7.45-6.06l.25-.2c2.15-1.7,4.32-3.39,6.48-5.07,3.4-2.63,6.81-5.25,10.15-7.86l2.64-2.07c1-.76,1.92-1.52,2.87-2.28a213.69,213.69,0,0,0,23.86-22.64q2.08-2.28,4.14-4.59c.65-.74,1.3-1.47,1.94-2.21C128.54,96.41,137,85.89,146.48,76q3.38-3.55,6.92-7c2-1.91,4-3.79,6.14-5.63,2.41-2.12,4.89-4.19,7.49-6.19,3.55-2.76,7.29-5.41,11.29-7.94,1-.63,2-1.24,2.93-1.84,99.71-62,173.1-41.74,222.06,0q5.54,4.7,10.66,9.78c2.08,2,4.09,4.09,6,6.19.22.22.42.45.63.69q2.06,2.19,4,4.41l1.15,1.32c.57.66,1.14,1.32,1.7,2s1.37,1.63,2.05,2.45l1.27,1.56q4.1,5,7.81,10.2c.5.68,1,1.37,1.48,2.06,3.42,4.8,6.6,9.65,9.55,14.47l1.25,2.06q.63,1,1.23,2.07l1.19,2c.4.69.79,1.37,1.17,2l1.14,2c.39.68.76,1.36,1.11,2l1.09,2c.36.67.71,1.35,1.06,2l1,2,1,2q2,4,3.73,7.82c.58,1.3,1.16,2.59,1.71,3.86,2.49,5.72,4.62,11.19,6.36,16.28a.19.19,0,0,1,0,.07c.17.49.33,1,.49,1.45s.33,1,.49,1.48.25.75.36,1.13c.18.56.36,1.12.53,1.69s.37,1.22.54,1.83c.33,1.12.65,2.24,1,3.37.26.95.51,1.9.75,2.86,0,.18.1.35.14.53s.07.3.11.45c.14.56.28,1.12.41,1.69.36,1.49.69,3,1,4.49.17.82.34,1.63.49,2.45l.09.46q.23,1.16.42,2.31c.18,1,.35,2.07.5,3.1.13.78.24,1.57.35,2.36,0,.11,0,.23.05.35.07.52.14,1.05.2,1.58s.11.88.16,1.31c.18,1.59.34,3.17.47,4.76l.09,1.08.12,1.81c0,.67.08,1.34.11,2,0,.52.05,1,.07,1.55,0,.76.05,1.53.06,2.29S481.72,201.05,481.72,201.94Z"/>
        <path class="cls-3" d="M481.72,201.94a119.56,119.56,0,0,1-3.33,28.48c-.75,3.06-1.65,6.11-2.68,9.11-.3.86-.6,1.72-.92,2.57s-.53,1.4-.8,2.09l-.23.57c-.29.72-.58,1.44-.89,2.15l-.15.35c-.3.7-.61,1.4-.92,2.09l-.42.91c-.28.62-.57,1.23-.87,1.84s-.63,1.29-.95,1.93c-.12.23-.23.46-.35.68l-.85,1.65-.69,1.27q-1.59,2.94-3.33,5.8c-.47.78-.95,1.56-1.44,2.33-.11.19-.23.38-.35.57q-.84,1.32-1.71,2.64c-.47.71-.94,1.42-1.43,2.13L458.14,273l-.28.39c-.44.64-.9,1.28-1.35,1.92-.56.79-1.13,1.56-1.7,2.34-.12.16-.23.32-.35.47-.65.89-1.32,1.77-2,2.64-.4.52-.8,1.05-1.21,1.56-.72,1-1.46,1.89-2.21,2.83s-1.43,1.79-2.16,2.68l-.24.29c-.72.89-1.44,1.77-2.18,2.65-.21.27-.44.54-.66.8-.67.81-1.35,1.62-2,2.42q-2.94,3.48-5.93,6.9-6.08,7-12.41,13.89c-3.51,3.8-7.07,7.58-10.7,11.29C395.33,343.91,376.47,360.6,356,373.9c-2.55,1.65-5.12,3.26-7.72,4.79l-2.85,1.67-.49.28c-1,.56-2,1.11-2.95,1.65s-2,1.11-3,1.64l-1.38.72q-3,1.56-6,3c-1.09.52-2.18,1-3.28,1.51s-2,.91-3.05,1.35l-1.25.53c-.93.4-1.87.78-2.81,1.16q-2.72,1.1-5.48,2.09l-2.12.76-1.2.41-2,.65-1.72.55-.06,0-3.39,1c-1.79.52-3.58,1-5.38,1.46-1.19.3-2.38.58-3.58.85s-2.26.5-3.4.74l-.27.05c-1.18.24-2.37.47-3.56.68l-1.82.31-1.84.29c-.55.09-1.11.17-1.66.24l-2,.28a154.51,154.51,0,0,1-21.37,1.21l-1.28,0a176.84,176.84,0,0,1-19.35-1.45l-1.41-.19-2.43-.34-1.89-.3c-2.67-.42-5.32-.9-8-1.44-.59-.11-1.17-.23-1.75-.36-1.78-.37-3.57-.77-5.34-1.19-1.19-.28-2.37-.57-3.55-.87l-1.77-.46-1.77-.47c-2.35-.63-4.69-1.31-7-2q-4.06-1.23-8.08-2.61l-2.92-1c-3-1.07-6-2.2-9-3.37l-1.63-.66-1.31-.57-.88-.4c-1.94-.88-4-1.91-6.32-3.07l-1.16-.6c-1.39-.73-2.84-1.5-4.33-2.32-3.13-1.72-6.48-3.62-10-5.69-40-23.54-101.26-67.72-115.64-84.47-.73-.85-1.44-1.71-2.15-2.58-.55-.68-1.1-1.37-1.63-2.07s-1-1.26-1.44-1.91-.83-1.13-1.23-1.71-.76-1.07-1.13-1.61l-.08-.12c-.45-.67-.9-1.34-1.34-2s-.84-1.3-1.24-2c-.2-.31-.39-.63-.58-.95q-.67-1.11-1.32-2.22v0c-.46-.82-.92-1.64-1.37-2.47-.78-1.45-1.53-2.91-2.23-4.39l-.54-1.15a91.47,91.47,0,0,1-3.74-9.29c-.39-1.1-.74-2.21-1.08-3.32-.43-1.43-.82-2.87-1.18-4.31-.07-.29-.14-.57-.2-.86-.18-.75-.35-1.51-.5-2.27-.23-1.06-.43-2.12-.6-3.19,0-.26-.09-.52-.12-.78-.09-.55-.17-1.1-.24-1.66s-.17-1.33-.24-2c0-.23-.05-.45-.07-.67-.06-.57-.1-1.14-.15-1.7a.61.61,0,0,0,0-.14c-.05-.68-.09-1.35-.11-2a1.28,1.28,0,0,1,0-.19q0-1.06-.06-2.13c0-1.73,0-3.45.11-5.17,0-.68.09-1.36.15-2,.12-1.34.28-2.68.48-4,.1-.68.21-1.36.34-2q.36-2,.87-4.05a69.72,69.72,0,0,1,3.45-10.25,72.21,72.21,0,0,1,3.59-7.34c.1-.2.22-.41.34-.61,5.39-9.49,12.72-17.91,21-25.71l1.42-1.33,1.26-1.14c1-.87,1.91-1.72,2.88-2.58l.18-.16q2.32-2,4.71-4c2.45-2,4.94-4.06,7.45-6.06l.25-.2c2.15-1.7,4.32-3.39,6.48-5.07l3.26-2.52c2.31-1.78,4.62-3.56,6.89-5.34l2.64-2.07c1-.76,1.92-1.52,2.87-2.28a213.69,213.69,0,0,0,23.86-22.64q2.08-2.28,4.14-4.59c.65-.74,1.3-1.47,1.94-2.21C128.54,96.41,137,85.89,146.48,76q3.38-3.55,6.92-7c2-1.91,4-3.79,6.14-5.63,2.41-2.12,4.89-4.19,7.49-6.19,3.55-2.76,7.29-5.41,11.29-7.94,1-.63,2-1.24,2.93-1.84,99.71-62,173.1-41.74,222.06,0q5.54,4.7,10.66,9.78c2.08,2,4.09,4.09,6,6.19.22.22.42.45.63.69q2.06,2.19,4,4.41l1.15,1.32c.57.66,1.14,1.32,1.7,2s1.37,1.63,2.05,2.45l1.27,1.56q4.1,5,7.81,10.2c.5.68,1,1.37,1.48,2.06,3.42,4.8,6.6,9.65,9.55,14.47l1.25,2.06q.63,1,1.23,2.07l1.19,2c.4.69.79,1.37,1.17,2l1.14,2c.39.68.76,1.36,1.11,2l1.09,2c.36.67.71,1.35,1.06,2l1,2,1,2q2,4,3.73,7.82c.58,1.3,1.16,2.59,1.71,3.86,2.49,5.72,4.62,11.19,6.36,16.28a.19.19,0,0,1,0,.07c.17.49.33,1,.49,1.45s.33,1,.49,1.48.25.75.36,1.13c.18.56.36,1.12.53,1.69s.37,1.22.54,1.83c.33,1.12.65,2.24,1,3.37.26.95.51,1.9.75,2.86,0,.18.1.35.14.53s.07.3.11.45c.14.56.28,1.12.41,1.69.36,1.49.69,3,1,4.49.17.82.34,1.63.49,2.45l.09.46q.23,1.16.42,2.31c.18,1,.35,2.07.5,3.1.13.78.24,1.57.35,2.36,0,.11,0,.23.05.35.07.52.14,1.05.2,1.58s.11.88.16,1.31c.18,1.59.34,3.17.47,4.76l.09,1.08.12,1.81c0,.67.08,1.34.11,2,0,.52.05,1,.07,1.55,0,.76.05,1.53.06,2.29S481.72,201.05,481.72,201.94Z"/>
      </g>
      <path class="cls-4" d="M32.14,218.37c-.2-.13-.15-.22,0,0Z"/>
      <g>
        <path class="cls-5" d="M125.67,209.55A18.32,18.32,0,0,1,113.1,224l-2.48.81c-8.92,12.63-24.56,18-37.89,10.19l-3.9-2.29-10.92-13-.13,0c-3.46.72-7.37.19-9.93-2.25a3.4,3.4,0,1,1-5.51-3.25c-2.2,1.94-5.6,1.05-7.72-1.07a66.7,66.7,0,0,1,2-17.29A69.72,69.72,0,0,1,40,185.67a72.21,72.21,0,0,1,3.59-7.34c.1-.2.22-.41.34-.61a87.87,87.87,0,0,1,6.65-10l1.26-1.14c1-.87,1.91-1.72,2.88-2.58l.18-.16q2.32-2,4.71-4c2.45-2,4.94-4.06,7.45-6.06l.25-.2c2.15-1.7,4.32-3.39,6.48-5.07l3.26-2.52a8.94,8.94,0,0,1,1.92.45c2.67.93,3.13,3.38,5,5.06,2.46,2.25,4.82-1.53,8.61-1.41,11.65.36,7.13,12.31,12.82,10.81,24.57-6.48,20.44,25,9.76,31.85C121.46,197.92,126.89,201.37,125.67,209.55Z"/>
        <g>
          <ellipse class="cls-1" cx="72.84" cy="198.5" rx="41.44" ry="40.93"/>
          <ellipse class="cls-6" cx="72.84" cy="196.84" rx="37.78" ry="37.32"/>
        </g>
        <g>
          <path class="cls-2" d="M32.24,211.55c-2.38,1.48-3.06,6.45-1.19,8.61s5.46.49,6.19-2.87a1.12,1.12,0,0,0,2,.28,2.3,2.3,0,0,0,.14-2.1c-.18-.15-.11-.26,0,0,1.22,1,3.32-.09,3.61-2.16-.89,5.5,4.11,10.3,7.79,7.5-1.09,2.34.34,5.41,2.24,6S57,226.28,58.8,225s3.69-2.67,5.68-2.76c1.73-.08,3.34.9,5,1.48,5.26,1.83,11.42-.6,15.44-6.11,2.66,4.55,9.21,2.87,11-2.79.37,2.65,2.18,4.67,4.21,4.7s4.06-1.94,4.76-4.58v0c0,2.51,2.28,3.74,3.88,2.13a9.38,9.38,0,0,0,2.31-8.87c2.72-.11,5.36-3.27,5.77-6.93s-1.43-7.34-4.06-8.06c4.52-1.87,8-8,8.22-14.29s-3.06-12.09-7.49-13.55a4.7,4.7,0,0,0-5.08,1.06c-.53-3.57-2.15-6.76-4.54-8.36-3.8-2.57-9.09-.81-11.92,4a9.41,9.41,0,0,0,.22-8.38c-1.26-2.33-3.76-3.27-5.88-2.17-.45-3.82-3.41-6.55-6.3-5.81s-5.22,4.84-5,8.72c-.27-3.13-4-3.9-5.28-1.28.11.24-.06.1,0,0-1.84-3.86-5.58-5.84-9.05-4.71-3.69,1.21-6.79,5.84-7.27,10.9a6.53,6.53,0,0,0-9,.25c-2.73,2.46-4.31,7.14-3.83,11.32-2.87-2.83-7.7-1.28-9.67,3.1s-.62,10.58,2.71,12.42c-2.29.35-4.31,3.39-4.31,6.47s2,5.72,4.33,5.64c-2.32.2-4.51,2.94-4.85,6S30,210.87,32.24,211.55Z"/>
          <g class="cls-7">
            <path class="cls-8" d="M70.33,197.21a4.29,4.29,0,0,0-4-1,4.78,4.78,0,0,0-3,3.71c-.32,1.81.52,3.81,1.9,4.15,1.69.42,3.42-1.47,5.14-1.26a11.1,11.1,0,0,1,1.77.58c2.47.69,5-1.53,7.06-3.61a9.82,9.82,0,0,0,2-2.49,4.06,4.06,0,0,0,.26-3.29c-.6-1.35-2.1-1.46-3.36-1.2a13.44,13.44,0,0,0-7,4.1c.07-.51.14-1,.22-1.52Z"/>
            <path class="cls-8" d="M106.45,192.29a5.72,5.72,0,0,0-2.14-1.33,2.06,2.06,0,0,0-2.26.95,3.28,3.28,0,0,0,.56,3.76,5.21,5.21,0,0,0,3.13,1.17c1.14.15,2.58.12,3.17-1.2a2.9,2.9,0,0,0-.48-2.89,4.93,4.93,0,0,0-2.22-1.27Z"/>
            <g>
              <path class="cls-8" d="M49.91,171.85a11,11,0,0,0-4.74,7.32c-.18,1-.18,2.12.46,2.58a1.67,1.67,0,0,0,1.55-.05l6.64-2.4a10,10,0,0,0-3,2.19,5,5,0,0,0-1.2,3.92,2.88,2.88,0,0,0,3,2.44,6.48,6.48,0,0,0,3.67-2.07,6.8,6.8,0,0,0,2.38-4.46c0-1.8-1.7-3.37-2.81-2.14A24.73,24.73,0,0,0,63,174.63a8.59,8.59,0,0,0,2.09-2.58,4.33,4.33,0,0,0,.27-3.44c-2.16-5.09-5.15,2.75-6.55,3.52C56.18,173.59,53.28,169.87,49.91,171.85Z"/>
              <path class="cls-8" d="M39.23,194.8a3.17,3.17,0,0,0,.53,2.88,1.3,1.3,0,0,0,2.12-.68,8.1,8.1,0,0,0-4,3.09c-1,1.64-.77,4.39.69,4.91.91.33,1.89-.3,2.75-.95a57.6,57.6,0,0,0,6.93-6.14A3.15,3.15,0,0,0,50.71,202c1.64.08,3.2-1.14,4.63-2.32,1.75-1.44,3.77-3.61,3.36-6.09a3,3,0,0,0-4.23-2.25c-1.7.74-3,2.55-4.21,4.29,1-1.78-.31-4.25-1.93-4.43s-3.16,1.14-4.17,2.68c1.86-1.4,2.33-4.77-.12-5C42.44,188.76,39.65,193.08,39.23,194.8Z"/>
              <path class="cls-8" d="M89.77,184.2c-1.38-.58-3.14.68-3.54,2.53s.63,3.87,2.08,4.06a4.44,4.44,0,0,0-2.83,2,3.51,3.51,0,0,0-.63,2.13,2,2,0,0,0,1.94,1.8,5.27,5.27,0,0,0,2.59-1.08,4.38,4.38,0,0,0-2.55,1.09,2.57,2.57,0,0,0-.43,3c.52.64,1.39.48,2.11.18a11.4,11.4,0,0,0,4.38-3.37,3.54,3.54,0,0,0,3.59,1.72,3.47,3.47,0,0,0,2.14-3.9,2.51,2.51,0,0,0-2.2-1.94,5.77,5.77,0,0,0-2.88.75,7.41,7.41,0,0,0,2.37-3.38c.37-1.44-.35-3.29-1.51-3.11-1.31.21-2,2.52-3.06,3.4C90.09,188.67,92.53,185.35,89.77,184.2Z"/>
              <path class="cls-8" d="M66.36,178.71c-1.5,1.38-2.07,3.94-2,6.21.06,2.52.91,5.16,2.71,6.06,2.36,1.18,5.39-1.53,5.89-4.83a8.09,8.09,0,0,0-3.41-7.92A2.87,2.87,0,0,0,66.36,178.71Z"/>
              <path class="cls-8" d="M83.08,175l.6.64a2.62,2.62,0,0,0-4.34-.17,4.75,4.75,0,0,0-.12,5.56,2.71,2.71,0,0,0,4.36-.66,4,4,0,0,0,5.23-1.56c1.25-1.94,1-5.18-.59-6.27s-4.18.85-4,3.25l-.7-1Z"/>
              <path class="cls-8" d="M101.41,177.63a13.68,13.68,0,0,0-2.93,5.28c-.47,2.06.19,4.61,1.79,5s3.12-1.35,4.07-3.15a8.06,8.06,0,0,0,1.07-5.4c-.44-1.77-2.45-2.71-3.49-1.26Z"/>
              <path class="cls-8" d="M75.12,166.94a2.3,2.3,0,0,0-3.72-1.08,5.11,5.11,0,0,0-1.26,5,3.93,3.93,0,0,0,3.35,2.91,3.69,3.69,0,0,0,3.61-4.09,3.21,3.21,0,0,0,3.43,1.46,8.82,8.82,0,0,0,3.63-1.94c1.54-1.21,3.19-3,3.07-5.25a3.2,3.2,0,0,0-2.8-3.12,5.17,5.17,0,0,0-3.86,2c-.85,1-1.56,2.12-2.48,3s-2.15,1.35-3.1.75Z"/>
            </g>
          </g>
        </g>
      </g>
      <g>
        <g>
          <rect class="cls-9" x="145.68" y="228.87" width="230.67" height="97.15"/>
          <g>
            <rect class="cls-1" x="150.5" y="234.75" width="21.7" height="12.01"/>
            <rect class="cls-1" x="336.83" y="293.31" width="34.18" height="12.01"/>
            <rect class="cls-1" x="349.91" y="249.75" width="21.1" height="12.01"/>
            <rect class="cls-1" x="150.5" y="278.5" width="21.7" height="12.01"/>
            <rect class="cls-1" x="150.5" y="264.03" width="17.57" height="12.01"/>
            <g>
              <rect class="cls-1" x="150.5" y="249.39" width="12.01" height="12.01"/>
              <rect class="cls-1" x="165.84" y="249.39" width="12.01" height="12.01"/>
              <rect class="cls-1" x="181.17" y="249.39" width="12.01" height="12.01"/>
              <rect class="cls-1" x="196.5" y="249.39" width="12.01" height="12.01"/>
              <rect class="cls-1" x="211.84" y="249.39" width="12.01" height="12.01"/>
              <rect class="cls-1" x="227.17" y="249.39" width="12.01" height="12.01"/>
              <rect class="cls-1" x="242.5" y="249.39" width="12.01" height="12.01"/>
              <rect class="cls-1" x="257.84" y="249.39" width="12.01" height="12.01"/>
              <rect class="cls-1" x="273.17" y="249.39" width="12.01" height="12.01"/>
              <rect class="cls-1" x="288.5" y="249.39" width="12.01" height="12.01"/>
              <rect class="cls-1" x="303.84" y="249.39" width="12.01" height="12.01"/>
              <rect class="cls-1" x="319.17" y="249.39" width="12.01" height="12.01"/>
              <rect class="cls-1" x="334.51" y="249.39" width="12.01" height="12.01"/>
            </g>
            <g>
              <rect class="cls-1" x="150.5" y="308.13" width="12.01" height="12.01"/>
              <rect class="cls-1" x="165.84" y="308.13" width="12.01" height="12.01"/>
              <rect class="cls-1" x="181.17" y="308.13" width="12.01" height="12.01"/>
              <rect class="cls-1" x="196.5" y="308.13" width="14.66" height="12.01"/>
              <rect class="cls-1" x="214.48" y="308.13" width="73.35" height="12.01"/>
              <rect class="cls-1" x="312.49" y="308.13" width="12.01" height="12.01"/>
              <rect class="cls-1" x="327.82" y="308.13" width="12.01" height="12.01"/>
              <rect class="cls-1" x="343.18" y="308.13" width="12.01" height="12.01"/>
              <rect class="cls-1" x="290.83" y="308.13" width="18.65" height="12.01"/>
              <rect class="cls-1" x="359" y="308.13" width="12.01" height="12.01"/>
            </g>
            <g>
              <rect class="cls-1" x="171.48" y="264.03" width="12.01" height="12.01"/>
              <rect class="cls-1" x="186.81" y="264.03" width="12.01" height="12.01"/>
              <rect class="cls-1" x="202.15" y="264.03" width="12.01" height="12.01"/>
              <rect class="cls-1" x="217.48" y="264.03" width="12.01" height="12.01"/>
              <rect class="cls-1" x="232.82" y="264.03" width="12.01" height="12.01"/>
              <rect class="cls-1" x="248.15" y="264.03" width="12.01" height="12.01"/>
              <rect class="cls-1" x="263.48" y="264.03" width="12.01" height="12.01"/>
              <rect class="cls-1" x="278.82" y="264.03" width="12.01" height="12.01"/>
              <rect class="cls-1" x="294.15" y="264.03" width="12.01" height="12.01"/>
              <rect class="cls-1" x="309.48" y="264.03" width="12.01" height="12.01"/>
              <rect class="cls-1" x="324.82" y="264.03" width="12.01" height="12.01"/>
              <rect class="cls-1" x="340.15" y="264.03" width="12.01" height="12.01"/>
              <polygon class="cls-1" points="371.01 264.04 371.01 290.69 359 290.69 359 276.05 355.48 276.05 355.48 264.04 371.01 264.04"/>
            </g>
            <g>
              <rect class="cls-1" x="175" y="278.67" width="12.01" height="12.01"/>
              <rect class="cls-1" x="190.33" y="278.67" width="12.01" height="12.01"/>
              <rect class="cls-1" x="205.66" y="278.67" width="12.01" height="12.01"/>
              <rect class="cls-1" x="221" y="278.67" width="12.01" height="12.01"/>
              <rect class="cls-1" x="236.33" y="278.67" width="12.01" height="12.01"/>
              <rect class="cls-1" x="251.67" y="278.67" width="12.01" height="12.01"/>
              <rect class="cls-1" x="267" y="278.67" width="12.01" height="12.01"/>
              <rect class="cls-1" x="282.33" y="278.67" width="12.01" height="12.01"/>
              <rect class="cls-1" x="297.67" y="278.67" width="12.01" height="12.01"/>
              <rect class="cls-1" x="313" y="278.67" width="12.01" height="12.01"/>
              <rect class="cls-1" x="328.33" y="278.67" width="12.01" height="12.01"/>
              <rect class="cls-1" x="343.67" y="278.67" width="12.01" height="12.01"/>
            </g>
            <g>
              <rect class="cls-1" x="168.48" y="293.31" width="12.01" height="12.01"/>
              <rect class="cls-1" x="183.81" y="293.31" width="12.01" height="12.01"/>
              <rect class="cls-1" x="199.15" y="293.31" width="12.01" height="12.01"/>
              <rect class="cls-1" x="214.48" y="293.31" width="12.01" height="12.01"/>
              <rect class="cls-1" x="229.81" y="293.31" width="12.01" height="12.01"/>
              <rect class="cls-1" x="245.15" y="293.31" width="12.01" height="12.01"/>
              <rect class="cls-1" x="260.48" y="293.31" width="12.01" height="12.01"/>
              <rect class="cls-1" x="275.82" y="293.31" width="12.01" height="12.01"/>
              <rect class="cls-1" x="291.15" y="293.31" width="12.01" height="12.01"/>
              <rect class="cls-1" x="306.48" y="293.31" width="12.01" height="12.01"/>
              <rect class="cls-1" x="321.82" y="293.31" width="12.01" height="12.01"/>
            </g>
            <g>
              <rect class="cls-1" x="175" y="235.48" width="12.01" height="12.01"/>
              <rect class="cls-1" x="190.33" y="235.48" width="12.01" height="12.01"/>
              <rect class="cls-1" x="205.66" y="235.48" width="12.01" height="12.01"/>
              <rect class="cls-1" x="221" y="235.48" width="12.01" height="12.01"/>
              <rect class="cls-1" x="236.33" y="235.48" width="12.01" height="12.01"/>
              <rect class="cls-1" x="251.67" y="235.48" width="12.01" height="12.01"/>
              <rect class="cls-1" x="267" y="235.48" width="12.01" height="12.01"/>
              <rect class="cls-1" x="282.33" y="235.48" width="12.01" height="12.01"/>
              <rect class="cls-1" x="297.67" y="235.48" width="12.01" height="12.01"/>
              <rect class="cls-1" x="313" y="235.48" width="12.01" height="12.01"/>
              <rect class="cls-1" x="328.33" y="235.48" width="12.01" height="12.01"/>
              <rect class="cls-1" x="343.67" y="235.48" width="12.01" height="12.01"/>
              <rect class="cls-1" x="359" y="235.48" width="12.01" height="12.01"/>
            </g>
            <rect class="cls-1" x="150.5" y="293.31" width="14.55" height="12.01"/>
          </g>
        </g>
        <polygon class="cls-10" points="145.68 229.5 150.5 227.89 373.22 227.89 376.39 229.47 145.68 229.5"/>
      </g>
      <path class="cls-5" d="M310.33,396.11l-4.69-28.25a23.07,23.07,0,0,0-6.35-11.06c-9.33-9-21.66-18.24-22.19-30-.81-18-3.62-17.49-3.32-21.94a54.06,54.06,0,0,0,3.21-6.6,38.47,38.47,0,0,0,1.36-5.34,3.64,3.64,0,0,1,4-2.85,6.19,6.19,0,0,1,3.39,1.59,9.39,9.39,0,0,1,2.54,6.5,27.79,27.79,0,0,1-1,7.06,46.16,46.16,0,0,1,3,12.41c1.07-3.3,1.88-6.63,2.95-9.92.22-.12.14-.38.35-.5-1.51-3.24-.23-3.06-3.22-10.19-5-12-10.64-23.57-14.65-38.65a8.57,8.57,0,0,1,.09-4.24c1.45-4.31,5.89-3.32,7.83-.81a8.28,8.28,0,0,1,1.2,2.18,116.46,116.46,0,0,0,9.57,18.45l10.89,16.6s3.79-3.11,4.37-4.5h0c.57-1.4.85-12.67.85-12.67s-.86,2.11-2.77,2c-1.38-.1-4.18.7-6.17-1.54a5.21,5.21,0,0,1-.18-6.54l4.93-6.66a7.48,7.48,0,0,1,7.74-.93,36.82,36.82,0,0,1,8.71,6.1,17.81,17.81,0,0,1,7.58,1.46c3.49,1.68,7.15,6.5,7.15,6.5s4.07.25,5.9,1.58c.46.33,6.67,10,4.43,17.53-1.33,4.49-2.15,11-2.75,12.76l-3.05,44.09,6.15,29L335.09,386A94,94,0,0,1,320,392.79Z"/>
      <g>
        <g>
          <g>
            <path class="cls-11" d="M324,263.7a78.74,78.74,0,0,1,2.72,20,10.81,10.81,0,0,0,.36,3.36,3.34,3.34,0,0,0,2.29,2.29"/>
            <path class="cls-11" d="M338.11,270.27c3,6.26-.07,20.25.15,21.23a3.53,3.53,0,0,0,1.69,2.4"/>
            <g>
              <path class="cls-11" d="M312.33,262.85c-.35,2-.64,4.29-1,6.28a11.54,11.54,0,0,1-4-8"/>
              <path class="cls-11" d="M293.17,316.2l-2.16.95"/>
              <path class="cls-11" d="M293.72,317.93a12.5,12.5,0,0,0,0,5.06"/>
              <path class="cls-11" d="M306.36,299.25c.8,1.43,1.59,2.87,2.39,4.31"/>
              <path class="cls-11" d="M311,283.48l2.38-3.37"/>
              <path class="cls-11" d="M344.43,299.25l-.72,2.63"/>
              <path class="cls-11" d="M338.61,292q1-3.36,2.11-6.72"/>
              <path class="cls-11" d="M345.65,280.12a2.7,2.7,0,0,1,3.64,1.14"/>
              <path class="cls-11" d="M331.28,268.64a5.15,5.15,0,0,1,4.81,1.11"/>
              <path class="cls-11" d="M286.74,275.31a7.3,7.3,0,0,1,6.2-2.33"/>
            </g>
          </g>
          <path class="cls-11" d="M277.71,256.45a6.7,6.7,0,0,1,5-1.18"/>
          <path class="cls-8" d="M279.57,301.2a12.64,12.64,0,0,0-2.93,3.3Z"/>
        </g>
        <path class="cls-11" d="M280.53,296.66c1.58-1.13,4.1,1.4,5.55.11a2.32,2.32,0,0,0,.49-2.17,7.5,7.5,0,0,1-.29-2.29"/>
      </g>
      <path class="cls-11" d="M325.12,289.72a18.11,18.11,0,0,1,1.1,12.82"/>
      <path class="cls-11" d="M336.74,295.89a8.32,8.32,0,0,1-1,5.5"/>
      <path class="cls-5" d="M240.05,310.9A6.06,6.06,0,0,1,240,313c-.65,3-2.53,11.78-3.22,16.58-.82,5.86-10.29,24-10.29,24S217.73,364.4,213.29,370c-2.18,2.77-5.63,14-8.56,24.66q-5.55-1.68-11-3.62c-3-1.07-6-2.2-9-3.37a147.09,147.09,0,0,1-15.63-7.62c1.66-6,2.77-10.67,2.75-10.94-.05-.63,3.56-7.58,3.56-7.58l-3.15-41.44-1.86-6.31a47.39,47.39,0,0,1-1.83-10,48.34,48.34,0,0,1,1.29-15.33l5.43-8.06,2.54-.19,7.86-11S190,268,191,271.2s-3.54,9.18-3.54,9.18l-1.59,9.87,3.78,9.24,2,.72s.66-16.27.21-19.52L196,265.84a70.54,70.54,0,0,0,3.26-7.46c.76-2.49,5.23-5,7.8-.59a6.43,6.43,0,0,1,.4,5.27c-1.05,3.05-1.92,5.45-1.92,5.45s-1,12.58-1.25,12.93,1.85,18.73,1.85,18.73l1.64.73.58-17.55,3.41-16.49s-.28-7.93,5.31-7a4.32,4.32,0,0,1,4.11,2.56c1.49,2.85.07,21.83.07,21.83l1.38,19.62L224.89,319l2.6-10.37s.15-14.86,9.53-16.13c0,0,2.79-.5,3.36,1.44s-1.39,5.9-1.11,9.7C239.48,306.34,239.86,309.35,240.05,310.9Z"/>
      <g>
        <path class="cls-2" d="M178.89,304.62c-.09,1.26-.17,2.52-.26,3.79a1.82,1.82,0,0,1,2.77-.71,4.14,4.14,0,0,1,.63-2.34c.32-.76.35-1.84-.39-2.2s-1.74.58-2.21,1.44c0-.31-.07-.62-.11-.93Z"/>
        <path class="cls-2" d="M193.23,302.36a8.88,8.88,0,0,0-2,4.18,4.16,4.16,0,0,1,1.47-1.07,1.46,1.46,0,0,1,1.66.37c.22.3.3.74.64.91a.79.79,0,0,0,1-.36,2.28,2.28,0,0,0,.25-1.1,6.08,6.08,0,0,0-.12-2.17,2.11,2.11,0,0,0-1.44-1.51,1.3,1.3,0,0,0-1.57,1.1Z"/>
        <path class="cls-2" d="M207.12,305.8a11.36,11.36,0,0,0-2.1,5,4.38,4.38,0,0,0,1.95-1,3.86,3.86,0,0,1,2-1,1.39,1.39,0,0,1,1.55,1.22,9.41,9.41,0,0,1,.08-2.54,5.35,5.35,0,0,0-.18-2.52,2.11,2.11,0,0,0-1.93-1.41,1.33,1.33,0,0,0-1.18,1.79Z"/>
        <path class="cls-2" d="M168.91,310.82a10,10,0,0,0-1.17,4.71,1.65,1.65,0,0,1,1.47-1.47,3.28,3.28,0,0,1,2.13.57,5.74,5.74,0,0,0,.14-2.29,2,2,0,0,0-1.46-1.61c-.77-.12-1.61.61-1.4,1.35l-.23-.57Z"/>
      </g>
      <g class="cls-12">
        <path class="cls-8" d="M178.89,304.62c-.09,1.26-.17,2.52-.26,3.79a1.82,1.82,0,0,1,2.77-.71,4.14,4.14,0,0,1,.63-2.34c.32-.76.35-1.84-.39-2.2s-1.74.58-2.21,1.44c0-.31-.07-.62-.11-.93Z"/>
        <path class="cls-8" d="M193.23,302.36a8.88,8.88,0,0,0-2,4.18,4.16,4.16,0,0,1,1.47-1.07,1.46,1.46,0,0,1,1.66.37c.22.3.3.74.64.91a.79.79,0,0,0,1-.36,2.28,2.28,0,0,0,.25-1.1,6.08,6.08,0,0,0-.12-2.17,2.11,2.11,0,0,0-1.44-1.51,1.3,1.3,0,0,0-1.57,1.1Z"/>
        <path class="cls-9" d="M207.12,305.8a11.36,11.36,0,0,0-2.1,5,4.38,4.38,0,0,0,1.95-1,3.86,3.86,0,0,1,2-1,1.39,1.39,0,0,1,1.55,1.22,9.41,9.41,0,0,1,.08-2.54,5.35,5.35,0,0,0-.18-2.52,2.11,2.11,0,0,0-1.93-1.41,1.33,1.33,0,0,0-1.18,1.79Z"/>
        <path class="cls-8" d="M168.91,310.82a10,10,0,0,0-1.17,4.71,1.65,1.65,0,0,1,1.47-1.47,3.28,3.28,0,0,1,2.13.57,5.74,5.74,0,0,0,.14-2.29,2,2,0,0,0-1.46-1.61c-.77-.12-1.61.61-1.4,1.35l-.23-.57Z"/>
      </g>
      <path class="cls-8" d="M237.2,292.53c-.43-2-3.24-1.69-3.24-1.69-9.45.56-10.72,15.37-10.72,15.37l-3.39,10.14-1-15.26.1-19.67s2.86-18.82,1.59-21.77a4.33,4.33,0,0,0-3.91-2.86c-5.5-1.38-5.82,6.55-5.82,6.55l-4.64,16.18L204.21,297l-1.58-.84s-.75-18.51-.43-18.82,2.22-12.8,2.22-12.8,1.05-2.32,2.33-5.29a6.4,6.4,0,0,0,0-5.28c-2.23-4.55-6.87-2.43-7.83,0a71.55,71.55,0,0,1-3.8,7.19l-5.3,14.48c.2,3.28-1.68,19.46-1.68,19.46l-1.91-.87-3.07-9.5L185.5,275s5.07-5.59,4.22-8.88-5.18-2.32-5.18-2.32l-8.66,10.36h-2.55l-6,7.62A48.23,48.23,0,0,0,165.92,307l1.38,6.43V355s-4.12,6.66-4.12,7.29c0,.29-1.7,5.54-4.07,12.09,10.37,6.1,19.3,10.82,25.63,13.31,3,1.18,6,2.3,9,3.37,3.8-10.66,8.24-22.08,10.69-24.75,4.86-5.28,14.38-15.44,14.38-15.44s10.81-17.36,12.08-23.14c1-4.74,3.58-13.35,4.46-16.3a5.74,5.74,0,0,0,.24-2.06c-.07-1.57-.22-4.6-.22-7.27C235.36,298.31,237.62,294.5,237.2,292.53Z"/>
      <path class="cls-13" d="M159.11,374.4c2.37-6.55,4.07-11.8,4.07-12.09,0-.63,4.12-7.29,4.12-7.29V313.46L165.92,307a48.23,48.23,0,0,1,1.38-25.28l6-7.62h2.55l8.66-10.36s4.34-.95,5.18,2.32S185.5,275,185.5,275l-2.34,9.73,3.07,9.5,1.91.87s1.88-16.18,1.68-19.46l5.3-14.48a71.55,71.55,0,0,0,3.8-7.19c1-2.43,5.6-4.55,7.83,0a6.4,6.4,0,0,1,0,5.28c-1.28,3-2.33,5.29-2.33,5.29s-1.9,12.47-2.22,12.8.43,18.82.43,18.82l1.58.84,1.91-17.45,4.64-16.18s.32-7.93,5.82-6.55a4.33,4.33,0,0,1,3.91,2.86c1.27,3-1.59,21.77-1.59,21.77l-.1,19.67,1,15.26,3.39-10.14s1.27-14.81,10.72-15.37c0,0,2.81-.29,3.24,1.69s-1.84,5.78-1.84,9.59c0,2.67.15,5.7.22,7.27a5.74,5.74,0,0,1-.24,2.06c-.88,2.95-3.42,11.56-4.46,16.3-1.27,5.78-12.08,23.14-12.08,23.14s-9.52,10.16-14.38,15.44c-2.45,2.67-6.89,14.09-10.69,24.75"/>
      <path class="cls-1" d="M188,296.63a6,6,0,0,1-1.42,5.7"/>
      <path class="cls-1" d="M171.84,310.61c1.37-2.12,2.71-5,2.34-7.55-.72-4.91-3-10.56-2-15.42.64-3.1,1.28-6.21,1.93-9.31"/>
      <path class="cls-13" d="M211.71,264.23a9.81,9.81,0,0,1,5,0c0-.47,0-.93.05-1.39"/>
      <path class="cls-13" d="M198.58,258a3.19,3.19,0,0,0,5-2.67"/>
      <path class="cls-13" d="M234.72,292.7a6.14,6.14,0,0,0-4.59,6.34l2.45.73"/>
      <path class="cls-1" d="M202.54,293.92c.11,1.68-.1,5.69,0,7.37"/>
      <path class="cls-1" d="M204.38,296.25c-.2,2.75-.4,5.49-.61,8.24,0-.35,0-.7,0-1.05"/>
      <path class="cls-1" d="M219.64,319.42a13.74,13.74,0,0,1-.94,9.06"/>
      <path class="cls-13" d="M194.29,305c-2.18,2.39-1.86,8.13-.32,11.28"/>
      <path class="cls-13" d="M210.4,309a11.23,11.23,0,0,1-2.67,7.33"/>
      <path class="cls-13" d="M178.41,306.16a10.24,10.24,0,0,0,1.49,7"/>
      <path class="cls-13" d="M169.13,313.62a8.53,8.53,0,0,0,1.54,5.34"/>
      <path class="cls-13" d="M181.85,267.52a3.17,3.17,0,0,1,3.5.56l1.23-1.63"/>
      <path class="cls-13" d="M192.11,274.86a4.15,4.15,0,0,1,5.29.9"/>
      <path class="cls-13" d="M208.13,279.86a6.7,6.7,0,0,1,5.69.12"/>
      <path class="cls-13" d="M172.48,288.25a5.41,5.41,0,0,1,5.24-2.6"/>
      <path class="cls-13" d="M165.77,297.82a2.85,2.85,0,0,1,2.37-2.67"/>
      <path class="cls-8" d="M347.67,344.59l.12-44.2c.48-1.79.87-8.35,1.89-12.92,1.74-7.66-5.1-16.9-5.58-17.19-1.92-1.2-6-1.18-6-1.18s-4-4.57-7.57-6a17.87,17.87,0,0,0-7.66-.95,36.61,36.61,0,0,0-9.1-5.51,7.48,7.48,0,0,0-7.66,1.45l-4.47,7a5.21,5.21,0,0,0,.61,6.52c2.14,2.11,4.88,1.12,6.26,1.12,1.91,0,2.63-2.16,2.63-2.16s.47,11.26,0,12.69h0c-.49,1.44-4.07,4.79-4.07,4.79l-12-15.84a114.51,114.51,0,0,1-10.77-17.78,8.7,8.7,0,0,0-1.35-2.09c-2.1-2.38-6.59-3.07-7.76,1.32a8.7,8.7,0,0,0,.19,4.24c5,14.78,11.38,25.95,17.19,37.59,3.45,6.92,2.17,6.83,3.89,9.95-.2.14-.1.4-.32.53-.84,3.36-1.43,6.73-2.28,10.09a46,46,0,0,0-3.83-12.18,27.46,27.46,0,0,0,.53-7.11,9.39,9.39,0,0,0-3-6.32,6.17,6.17,0,0,0-3.49-1.36,3.64,3.64,0,0,0-3.84,3.12,37.25,37.25,0,0,1-1,5.41,54.48,54.48,0,0,1-2.76,6.8c0,4.46,2.76,3.73,4.77,21.68,1.56,14,19.56,23.21,29.36,33.3l10.44,32.85A202.3,202.3,0,0,0,356,373.9Z"/>
      <g>
        <g>
          <path class="cls-13" d="M321.11,392.2l-10.44-32.85c-9.8-10.09-27.8-19.33-29.36-33.3-2-17.95-4.77-17.22-4.77-21.68a54.48,54.48,0,0,0,2.76-6.8,37.25,37.25,0,0,0,1-5.41,3.64,3.64,0,0,1,3.84-3.12,6.17,6.17,0,0,1,3.49,1.36,9.39,9.39,0,0,1,3,6.32,27.46,27.46,0,0,1-.53,7.11A46,46,0,0,1,293.9,316c.85-3.36,1.44-6.73,2.28-10.09.22-.13.12-.39.32-.53-1.72-3.12-.44-3-3.89-9.95-5.81-11.64-12.18-22.81-17.19-37.59a8.7,8.7,0,0,1-.19-4.24c1.17-4.39,5.66-3.7,7.76-1.32a8.7,8.7,0,0,1,1.35,2.09,114.51,114.51,0,0,0,10.77,17.78l12,15.84s3.58-3.35,4.07-4.79h0c.47-1.43,0-12.69,0-12.69s-.72,2.16-2.63,2.16c-1.38,0-4.12,1-6.26-1.12a5.21,5.21,0,0,1-.61-6.52l4.47-7a7.48,7.48,0,0,1,7.66-1.45,36.61,36.61,0,0,1,9.1,5.51,17.87,17.87,0,0,1,7.66.95c3.6,1.45,7.57,6,7.57,6s4.07,0,6,1.18c.48.29,7.32,9.53,5.58,17.19-1,4.57-1.41,11.13-1.89,12.92l-.12,44.2L356,373.9"/>
          <g>
            <g>
              <g>
                <path class="cls-13" d="M324,263.7a78.74,78.74,0,0,1,2.72,20,10.81,10.81,0,0,0,.36,3.36,3.34,3.34,0,0,0,2.29,2.29"/>
                <path class="cls-13" d="M338.11,270.27c3,6.26-.07,20.25.15,21.23a3.53,3.53,0,0,0,1.69,2.4"/>
                <g>
                  <path class="cls-13" d="M312.33,262.85c-.35,2-.64,4.29-1,6.28a11.54,11.54,0,0,1-4-8"/>
                  <path class="cls-13" d="M293.17,316.2l-2.16.95"/>
                  <path class="cls-13" d="M293.72,317.93a12.5,12.5,0,0,0,0,5.06"/>
                  <path class="cls-13" d="M306.36,299.25c.8,1.43,1.59,2.87,2.39,4.31"/>
                  <path class="cls-13" d="M311,283.48l2.38-3.37"/>
                  <path class="cls-13" d="M344.43,299.25l-.72,2.63"/>
                  <path class="cls-13" d="M338.61,292q1-3.36,2.11-6.72"/>
                  <path class="cls-13" d="M345.65,280.12a2.7,2.7,0,0,1,3.64,1.14"/>
                  <path class="cls-13" d="M331.28,268.64a5.15,5.15,0,0,1,4.81,1.11"/>
                  <path class="cls-13" d="M286.74,275.31a7.3,7.3,0,0,1,6.2-2.33"/>
                </g>
              </g>
              <path class="cls-13" d="M277.71,256.45a6.7,6.7,0,0,1,5-1.18"/>
              <path class="cls-13" d="M279.57,301.2a12.64,12.64,0,0,0-2.93,3.3"/>
            </g>
            <path class="cls-13" d="M280.53,296.66c1.58-1.13,4.1,1.4,5.55.11a2.32,2.32,0,0,0,.49-2.17,7.5,7.5,0,0,1-.29-2.29"/>
          </g>
        </g>
        <path class="cls-13" d="M325.12,289.72a18.11,18.11,0,0,1,1.1,12.82"/>
        <path class="cls-13" d="M336.74,295.89a8.32,8.32,0,0,1-1,5.5"/>
      </g>
      <g>
        <circle class="cls-14" cx="423.44" cy="184.5" r="41.45"/>
        <g>
          <g>
            <path class="cls-5" d="M470.36,185.59c-8.84,14.49-12,12.54-42.12,27-15.31,7.33-30.1-16.24-20.09-40.43C408.64,171,413,165,413,165a22.08,22.08,0,0,1,38.58-9.12,23.84,23.84,0,0,1,21.18-5.06c.35,1,.68,2,1,3,.12.38.25.75.36,1.13.38,1.17.74,2.34,1.07,3.52q1,3.36,1.84,6.76a13.55,13.55,0,0,0-9.84.59c-2.21,1.08-4.06,2.86-6.36,3.74s-5.48.38-6.36-1.92c1.11,4.62,6,3.24,10.62,4.15C472.25,173.2,474.08,179.49,470.36,185.59Z"/>
            <g>
              <path class="cls-15" d="M456.75,178.45s7.42-1,10.94-.48a6.71,6.71,0,0,1,4.27,2.45,2.34,2.34,0,0,1,.51,1.32l.4,5.8a2.37,2.37,0,0,1-.64,1.79c-1.45,1.51-5.82,4.26-18.76,5.25C435.28,196,456.75,178.45,456.75,178.45Z"/>
              <g>
                <path class="cls-15" d="M451.32,163.46a27.64,27.64,0,0,1,6.08,17.63c0,6.91-8,30.51-28.49,33.38-21.69,3-39.13-15.52-35.41-37.86C396.08,161.16,433.91,141.81,451.32,163.46Z"/>
                <ellipse class="cls-8" cx="424.82" cy="179.53" rx="31.47" ry="29.79"/>
                <ellipse class="cls-10" cx="424.76" cy="181.09" rx="25.84" ry="24.45"/>
                <path class="cls-14" d="M456.29,179.53c0-16.45-14.09-29.79-31.47-29.79s-31.47,13.34-31.47,29.79"/>
                <path class="cls-14" d="M448,199.69a28.82,28.82,0,0,0,8.3-20.16"/>
                <path class="cls-14" d="M402.78,200.78a32.28,32.28,0,0,0,22,8.53,32.72,32.72,0,0,0,14.61-3.39"/>
                <path class="cls-14" d="M398.24,195.47c.41.62.85,1.22,1.3,1.8"/>
                <path class="cls-14" d="M393.35,179.53a28.38,28.38,0,0,0,3,12.7"/>
              </g>
              <path class="cls-15" d="M471,187.68s-5.61-3.92-14.72-.37"/>
              <path class="cls-15" d="M466.18,190.4a57.1,57.1,0,0,1-11.64,1.83"/>
              <path class="cls-15" d="M469.09,189.17a5.73,5.73,0,0,1-1.4.72"/>
            </g>
          </g>
          <path class="cls-8" d="M474.08,154.94c-.11-.38-.24-.75-.36-1.13-1.91-5.92-4.37-12.42-7.36-19.28-.55-1.27-1.13-2.56-1.71-3.86l-.67.06c-2.87.29-5.89.65-8.25,2.28s-3.77,5.07-2.24,7.52,5.43,3.78,4.81,6.55c-6.41,3.61-14.23,3.19-21.36,5A34.78,34.78,0,0,0,425,157.71h0a36.71,36.71,0,0,0-3.24,2.72,12.81,12.81,0,0,0-1.32,1.42v0a4.89,4.89,0,0,0-1.13,2.54c-.25,2.67,2.18,4.49,4.77,5.65a.58.58,0,0,1,0,1.08,14.9,14.9,0,0,0-4.67,2.7l0,0a1.16,1.16,0,0,0,1,2l.4,0a7.55,7.55,0,0,1,3,.36,3.63,3.63,0,0,1,2.71,2.86c.16,2-2.15,3.86-5.15,4.09-.73.07-.17.94.9,1.12a16,16,0,0,0,6.4-.52c2.51-.6,5.19-1.47,6.61-3.62a4.52,4.52,0,0,0,.6-3.18,3.22,3.22,0,0,0-2.66-2.92,87.49,87.49,0,0,0,13.72-2.75h0l1.41-.43a13.16,13.16,0,0,0,3.87-1.69,5.39,5.39,0,0,0,1.69-1.86c1-2-.43-5.19-2.65-4.77,6.45-2.53,13.27-4,19.79-6.34C472,155.78,473.06,155.38,474.08,154.94Z"/>
        </g>
      </g>
      <path class="cls-15" d="M428.58,58.5,93.11,60l5.07-7.61a13.17,13.17,0,0,1,10.94-5.85H412.68a13.14,13.14,0,0,1,10.24,4.91Z"/>
      <g>
        <g>
          <rect class="cls-16" x="214.16" y="108.79" width="86.68" height="86.68" rx="34.15"/>
          <path class="cls-17" d="M229.91,159.45v12.32a7,7,0,0,0,7,7h42.27a7,7,0,0,0,7-7c.05-5.54.35-12.37.35-12.37Z"/>
          <g>
            <path class="cls-18" d="M384.62,163.57H137.41a6.34,6.34,0,0,1-5.9-4L93.38,61.67A3.9,3.9,0,0,1,97,56.35H425a3.9,3.9,0,0,1,3.64,5.32l-38.13,97.86A6.34,6.34,0,0,1,384.62,163.57Z"/>
            <polygon class="cls-10" points="386.45 155.04 134.98 155.04 100.38 62.55 420.89 62.55 386.45 155.04"/>
          </g>
        </g>
        <rect class="cls-10" x="230.18" y="163.43" width="56.06" height="3.84"/>
        <g>
          <g>
            <path class="cls-9" d="M349.72,151.06H172.14c-1,0-1.9-.44-2.08-1L144.8,69.83c-.28-.91.51-1.64,1.77-1.64H375.29c1.26,0,2,.73,1.76,1.64L351.8,150.07C351.62,150.62,350.69,151.06,349.72,151.06Z"/>
            <polygon class="cls-10" points="349.06 149.25 172.8 149.25 151.33 78.73 370.53 78.73 349.06 149.25"/>
            <g>
              <path class="cls-8" d="M198.1,96.24H164.73c-.83,0-1.37.45-1.21,1a1.81,1.81,0,0,0,1.76,1h33.18c.82,0,1.4-.44,1.31-1S198.92,96.24,198.1,96.24Z"/>
              <path class="cls-8" d="M199.21,102.33H170.83c-.81,0-1.35.43-1.2,1a1.77,1.77,0,0,0,1.71.95h28.22c.81,0,1.38-.43,1.29-.95S200,102.33,199.21,102.33Z"/>
              <path class="cls-19" d="M200.29,108.21h-32.2c-.8,0-1.32.42-1.18.93a1.77,1.77,0,0,0,1.7.91h32c.79,0,1.36-.41,1.27-.91S201.09,108.21,200.29,108.21Z"/>
              <path class="cls-8" d="M201.33,113.89H182.42c-.78,0-1.32.4-1.2.89s.85.89,1.63.89h18.81c.78,0,1.34-.4,1.25-.89S202.11,113.89,201.33,113.89Z"/>
              <path class="cls-8" d="M202.34,119.38H171.22c-.76,0-1.28.38-1.14.86s.86.85,1.63.85h30.94c.77,0,1.32-.38,1.24-.85S203.11,119.38,202.34,119.38Z"/>
              <path class="cls-8" d="M203.31,124.68H178.19c-.76,0-1.27.37-1.15.83s.83.83,1.58.83h25c.75,0,1.29-.37,1.21-.83S204.07,124.68,203.31,124.68Z"/>
              <path class="cls-8" d="M204.25,129.81H179.54c-.75,0-1.25.36-1.13.81s.81.8,1.55.8h24.59c.74,0,1.27-.36,1.19-.8S205,129.81,204.25,129.81Z"/>
              <path class="cls-8" d="M205.16,134.77h-27c-.73,0-1.23.35-1.11.79s.8.77,1.53.77h26.83c.73,0,1.26-.34,1.18-.77S205.9,134.77,205.16,134.77Z"/>
              <path class="cls-19" d="M206.05,139.58H188.63c-.72,0-1.22.34-1.12.76s.77.75,1.48.75h17.33c.72,0,1.24-.33,1.17-.75S206.77,139.58,206.05,139.58Z"/>
              <path class="cls-19" d="M196.94,89.92H172.07c-.84,0-1.4.46-1.25,1a1.8,1.8,0,0,0,1.77,1h24.72c.84,0,1.43-.45,1.33-1A1.66,1.66,0,0,0,196.94,89.92Z"/>
              <path class="cls-8" d="M195.73,83.37H161.11c-.85,0-1.41.48-1.24,1.07a1.92,1.92,0,0,0,1.84,1.06h34.41c.85,0,1.46-.48,1.35-1.06A1.69,1.69,0,0,0,195.73,83.37Z"/>
              <path class="cls-8" d="M206.9,144.24H178.21c-.71,0-1.19.33-1.08.73s.78.73,1.49.73h28.55c.7,0,1.22-.32,1.15-.73S207.61,144.24,206.9,144.24Z"/>
              <polygon class="cls-19" points="209.82 98.46 216.29 98.46 215.97 95.99 209.45 95.99 209.82 98.46"/>
              <polygon class="cls-19" points="210.72 104.48 217.08 104.48 216.77 102.09 210.36 102.09 210.72 104.48"/>
              <polygon class="cls-19" points="211.59 110.28 217.84 110.28 217.54 107.98 211.25 107.98 211.59 110.28"/>
              <polygon class="cls-19" points="212.43 115.89 218.58 115.89 218.28 113.67 212.1 113.67 212.43 115.89"/>
              <polygon class="cls-19" points="213.25 121.31 219.29 121.31 219 119.16 212.93 119.16 213.25 121.31"/>
              <polygon class="cls-19" points="214.03 126.55 219.97 126.55 219.7 124.47 213.72 124.47 214.03 126.55"/>
              <polygon class="cls-19" points="214.8 131.62 220.64 131.62 220.38 129.61 214.5 129.61 214.8 131.62"/>
              <polygon class="cls-19" points="215.53 136.53 221.28 136.53 221.03 134.58 215.24 134.58 215.53 136.53"/>
              <polygon class="cls-19" points="216.25 141.28 221.91 141.28 221.66 139.39 215.96 139.39 216.25 141.28"/>
              <polygon class="cls-19" points="208.88 92.23 215.47 92.23 215.14 89.67 208.5 89.67 208.88 92.23"/>
              <polygon class="cls-19" points="207.91 85.76 214.62 85.76 214.28 83.1 207.51 83.1 207.91 85.76"/>
              <polygon class="cls-19" points="216.94 145.89 222.51 145.89 222.27 144.06 216.66 144.06 216.94 145.89"/>
              <path class="cls-8" d="M251.05,135.56c0-.44.56-.79,1.29-.79h95.82c.73,0,1.22.35,1.1.79a1.64,1.64,0,0,1-1.54.77H252.39C251.66,136.33,251.06,136,251.05,135.56Z"/>
              <path class="cls-8" d="M349.13,131.42H296.07c-.74,0-1.3-.36-1.25-.8s.69-.81,1.44-.81h53.33c.74,0,1.24.36,1.11.81A1.64,1.64,0,0,1,349.13,131.42Z"/>
              <path class="cls-19" d="M283.48,131.42H267c-.74,0-1.34-.36-1.33-.8s.61-.81,1.36-.81H283.6c.74,0,1.32.36,1.28.81S284.22,131.42,283.48,131.42Z"/>
              <path class="cls-8" d="M317.92,126.34H243.08c-.75,0-1.38-.37-1.41-.83s.56-.83,1.32-.83h75.24c.75,0,1.3.37,1.21.83S318.68,126.34,317.92,126.34Z"/>
              <path class="cls-19" d="M227.43,124.68h5.34c.75,0,1.4.37,1.44.83s-.54.83-1.29.83h-5.31c-.75,0-1.4-.37-1.45-.83S226.68,124.68,227.43,124.68Z"/>
              <path class="cls-8" d="M328.75,120.24c-.1.47-.8.85-1.57.85H256.66c-.77,0-1.39-.38-1.4-.85s.61-.86,1.37-.86h70.91C328.31,119.38,328.85,119.76,328.75,120.24Z"/>
              <path class="cls-8" d="M226.87,119.38h20c.77,0,1.41.38,1.43.86s-.59.85-1.35.85H227.05c-.76,0-1.42-.38-1.48-.85S226.1,119.38,226.87,119.38Z"/>
              <path class="cls-8" d="M226.28,113.89h76.94c.78,0,1.36.4,1.29.89s-.75.89-1.53.89H226.47c-.77,0-1.45-.4-1.5-.89S225.5,113.89,226.28,113.89Z"/>
              <path class="cls-8" d="M276.23,110.05c-.79,0-1.41-.41-1.39-.91s.68-.93,1.48-.93h40.59c.8,0,1.37.42,1.28.93s-.8.91-1.59.91Z"/>
              <path class="cls-8" d="M225.68,108.21h35.13c.8,0,1.44.42,1.44.93s-.65.91-1.44.91H225.88c-.8,0-1.48-.41-1.54-.91S224.88,108.21,225.68,108.21Z"/>
              <path class="cls-8" d="M356.93,104.24H260.22c-.8,0-1.46-.43-1.46-.95s.65-1,1.46-1h97.25c.81,0,1.34.43,1.19,1A1.81,1.81,0,0,1,356.93,104.24Z"/>
              <path class="cls-8" d="M358.65,98.22H273.56c-.82,0-1.47-.44-1.45-1s.7-1,1.52-1h85.59c.82,0,1.36.45,1.2,1A1.83,1.83,0,0,1,358.65,98.22Z"/>
              <path class="cls-19" d="M360.45,92H342.63c-.84,0-1.41-.45-1.28-1a1.77,1.77,0,0,1,1.76-1H361c.84,0,1.39.46,1.22,1A1.86,1.86,0,0,1,360.45,92Z"/>
              <path class="cls-8" d="M330.16,92H264.73c-.83,0-1.51-.45-1.5-1s.68-1,1.52-1h65.82c.84,0,1.42.46,1.31,1A1.71,1.71,0,0,1,330.16,92Z"/>
              <path class="cls-8" d="M229,139.58h60.43c.72,0,1.27.34,1.22.76s-.65.75-1.37.75H229.19c-.72,0-1.34-.33-1.39-.75S228.3,139.58,229,139.58Z"/>
              <path class="cls-8" d="M229.52,144.24h92.84c.7,0,1.21.33,1.12.73s-.72.73-1.43.73H229.68c-.71,0-1.32-.32-1.36-.73S228.81,144.24,229.52,144.24Z"/>
              <path class="cls-8" d="M326.91,85.5H279.65c-.85,0-1.51-.48-1.48-1.06s.74-1.07,1.6-1.07h47.54c.86,0,1.46.48,1.35,1.07A1.74,1.74,0,0,1,326.91,85.5Z"/>
              <path class="cls-19" d="M266.25,85.5h-43c-.85,0-1.6-.48-1.66-1.06s.57-1.07,1.43-1.07h43.25c.85,0,1.54.48,1.53,1.07S267.1,85.5,266.25,85.5Z"/>
              <path class="cls-19" d="M302.85,139.58c.72,0,1.26.34,1.2.76s-.69.75-1.41.75H298c-.71,0-1.25-.33-1.2-.75s.67-.76,1.39-.76Z"/>
              <path class="cls-19" d="M245.54,135.56c0,.42-.55.77-1.28.77H237.9c-.73,0-1.35-.35-1.38-.77s.53-.79,1.26-.79h6.39C244.9,134.77,245.52,135.12,245.54,135.56Z"/>
              <path class="cls-19" d="M322.29,114.78c-.09.49-.8.89-1.57.89h-7.44c-.78,0-1.34-.4-1.27-.89s.78-.89,1.56-.89h7.48C321.83,113.89,322.39,114.29,322.29,114.78Z"/>
              <path class="cls-19" d="M345.5,119.38c.77,0,1.29.38,1.16.86a1.66,1.66,0,0,1-1.61.85h-5.93c-.77,0-1.29-.38-1.18-.85s.83-.86,1.6-.86Z"/>
              <path class="cls-19" d="M248.51,104.24c-.8,0-1.47-.43-1.5-.95s.62-1,1.43-1h6.31c.81,0,1.47.43,1.48,1s-.64.95-1.44.95Z"/>
            </g>
          </g>
          <g>
            <path class="cls-8" d="M162.57,73.45a2.13,2.13,0,0,1-2.1,3,4.44,4.44,0,0,1-3.94-3,2.13,2.13,0,0,1,2.08-3A4.42,4.42,0,0,1,162.57,73.45Z"/>
            <path class="cls-8" d="M170.71,73.5a2.2,2.2,0,0,1-2.2,3,4.26,4.26,0,0,1-3.84-3,2.21,2.21,0,0,1,2.18-3A4.24,4.24,0,0,1,170.71,73.5Z"/>
            <path class="cls-8" d="M178.94,73.45a2.27,2.27,0,0,1-2.29,3,4.09,4.09,0,0,1-3.75-3,2.28,2.28,0,0,1,2.28-3A4.06,4.06,0,0,1,178.94,73.45Z"/>
          </g>
        </g>
        <g>
          <polygon class="cls-20" points="100.38 62.55 127.33 134.58 159.84 62.55 100.38 62.55"/>
          <polygon class="cls-20" points="145.85 155.04 199.78 62.55 256.23 62.55 176.86 155.04 145.85 155.04"/>
          <polygon class="cls-20" points="280.56 62.1 196.5 155.04 209.45 155.04 296.52 62.55 280.56 62.1"/>
          <polygon class="cls-20" points="297.16 155.04 389.54 62.55 402.58 62.55 307.33 155.04 297.16 155.04"/>
        </g>
      </g>
      <g>
        <g>
          <g>
            <path class="cls-8" d="M450,273.23a72,72,0,0,1-1,11.87c-2.9,17.3-12,29.92-22.76,29.92a13.68,13.68,0,0,1-2.86-.3c-11.75-2.49-20.86-20.11-20.86-41.49,0-23.08,10.62-31.25,23.72-31.25S450,250.15,450,273.23Z"/>
            <g class="cls-21">
              <g>
                <path class="cls-2" d="M441.43,273.49c.88,12.38-1.24,24.82-4.81,36.71,8.94-7.34,13.05-18.88,16.77-29.83,2.7-7.95,5.43-16.15,4.94-24.53s-5-17.1-12.84-20a17.13,17.13,0,0,0-12.13.19c-6.59,2.65-3,4.8-.21,9.53A64.6,64.6,0,0,1,441.43,273.49Z"/>
                <path class="cls-9" d="M441.43,273.49c.88,12.38-1.24,24.82-4.81,36.71,8.94-7.34,13.05-18.88,16.77-29.83,2.7-7.95,5.43-16.15,4.94-24.53s-5-17.1-12.84-20a17.13,17.13,0,0,0-12.13.19c-6.59,2.65-3,4.8-.21,9.53A64.6,64.6,0,0,1,441.43,273.49Z"/>
              </g>
            </g>
            <path class="cls-13" d="M450,273.23a72,72,0,0,1-1,11.87c-2.9,17.3-12,29.92-22.76,29.92a13.68,13.68,0,0,1-2.86-.3c-11.75-2.49-20.86-20.11-20.86-41.49,0-23.08,10.62-31.25,23.72-31.25S450,250.15,450,273.23Z"/>
          </g>
          <g>
            <path class="cls-1" d="M439.05,294.46a41,41,0,0,1-7.79,14.6"/>
            <path class="cls-13" d="M439.8,291.56c-.12.56-.26,1.12-.41,1.68"/>
            <path class="cls-1" d="M439.74,273.17a40.81,40.81,0,0,1,.47,16.29"/>
          </g>
          <path class="cls-13" d="M402.57,273.23s27-10.66,47.46,0"/>
          <path class="cls-1" d="M426.3,242s2.7,10,3,26.27"/>
          <path class="cls-18" d="M430.07,254.15c.34,3.11-.2,5.76-1.21,5.92s-2.11-2.23-2.45-5.34.19-5.76,1.2-5.92S429.72,251,430.07,254.15Z"/>
        </g>
        <path class="cls-13" d="M415.66,323H384a7.75,7.75,0,0,1-7.69-6.71,5.33,5.33,0,0,1-.09-1.07V240.65a5.63,5.63,0,0,1,.09-1.08,7.74,7.74,0,0,1,7.69-6.7h89.72a7.66,7.66,0,0,1,3.73,1"/>
      </g>
    </g>
  </g>
</svg>
